<svg width="21" height="20" viewBox="0 0 21 20" fill="none" xmlns="http://www.w3.org/2000/svg">
<path d="M3.35714 0C1.78125 0 0.5 1.25645 0.5 2.80183V16.811C0.5 18.3564 1.78125 19.6128 3.35714 19.6128H7.74107V13.2299H5.38393V9.80642H7.74107V8.33108C7.74107 4.51796 9.5 2.7493 13.3214 2.7493C14.0446 2.7493 15.2946 2.88939 15.808 3.02948V6.12901C15.5402 6.10274 15.0714 6.08523 14.4866 6.08523C12.6116 6.08523 11.8884 6.78131 11.8884 8.58937V9.80642H15.6205L14.9777 13.2299H11.8839V19.6128H17.6429C19.2188 19.6128 20.5 18.3564 20.5 16.811V2.80183C20.5 1.25645 19.2188 0 17.6429 0H3.35714Z" fill="white"/>
</svg>
