<svg width="21" height="20" viewBox="0 0 21 20" fill="none" xmlns="http://www.w3.org/2000/svg">
<path d="M9.17857 7.86702C8.91857 8.03749 8.69534 8.2565 8.52165 8.51156C8.34796 8.76661 8.22719 9.05272 8.16625 9.35355C8.04318 9.9611 8.17126 10.5917 8.52232 11.1066C8.87338 11.6216 9.41865 11.9787 10.0382 12.0994C10.6577 12.2201 11.3008 12.0945 11.8259 11.7502C12.351 11.4059 12.7151 10.8712 12.8382 10.2637C12.9613 9.65612 12.8332 9.02551 12.4821 8.51057C12.1311 7.99563 11.5858 7.63854 10.9663 7.51785C10.3467 7.39716 9.70368 7.52276 9.17857 7.86702ZM15.5313 4.87256C15.2991 4.64492 15.0179 4.46542 14.7098 4.34722C13.9018 4.03639 12.1384 4.04953 11 4.06266C10.817 4.06266 10.6473 4.06704 10.5 4.06704C10.3527 4.06704 10.1786 4.06704 9.99107 4.06266C8.85268 4.04953 7.09821 4.03201 6.29018 4.34722C5.98214 4.46542 5.70536 4.64492 5.46875 4.87256C5.23214 5.10021 5.05357 5.37602 4.93304 5.67809C4.61607 6.47049 4.63393 8.20412 4.64286 9.32048C4.64286 9.49997 4.64732 9.66633 4.64732 9.80642C4.64732 9.94651 4.64732 10.1129 4.64286 10.2924C4.63393 11.4087 4.61607 13.1424 4.93304 13.9347C5.05357 14.2368 5.23661 14.5082 5.46875 14.7403C5.70089 14.9723 5.98214 15.1474 6.29018 15.2656C7.09821 15.5764 8.86161 15.5633 10 15.5502C10.183 15.5502 10.3527 15.5458 10.5 15.5458C10.6473 15.5458 10.8214 15.5458 11.0089 15.5502C12.1473 15.5633 13.9018 15.5808 14.7098 15.2656C15.0179 15.1474 15.2946 14.9679 15.5313 14.7403C15.7679 14.5126 15.9464 14.2368 16.067 13.9347C16.3884 13.1467 16.3705 11.4219 16.3571 10.3011C16.3571 10.1172 16.3527 9.94651 16.3527 9.80204C16.3527 9.65757 16.3527 9.49121 16.3571 9.30296C16.3705 8.18661 16.3884 6.46173 16.067 5.66934C15.9464 5.36726 15.7634 5.09584 15.5313 4.86381V4.87256ZM12.5357 6.82071C13.3432 7.35017 13.9031 8.1725 14.0924 9.10681C14.2816 10.0411 14.0845 11.0109 13.5446 11.8027C13.2773 12.1948 12.9338 12.5314 12.5338 12.7933C12.1339 13.0553 11.6852 13.2374 11.2134 13.3292C10.2607 13.5148 9.27178 13.3216 8.46429 12.7921C7.6568 12.2633 7.09662 11.4415 6.90699 10.5076C6.71736 9.57368 6.91381 8.60416 7.45312 7.8123C7.99244 7.02044 8.83044 6.47111 9.78277 6.28515C10.7351 6.09919 11.7238 6.29184 12.5312 6.82071H12.5357ZM13.8393 6.7638C13.7009 6.67187 13.5893 6.54053 13.5223 6.38731C13.4554 6.23408 13.442 6.06772 13.4732 5.90136C13.5045 5.735 13.5893 5.59053 13.7054 5.47233C13.8214 5.35413 13.9777 5.27533 14.1429 5.24468C14.308 5.21404 14.4821 5.22717 14.6384 5.29284C14.7946 5.35851 14.9286 5.46358 15.0223 5.59929C15.1161 5.735 15.1652 5.89698 15.1652 6.06334C15.1652 6.17279 15.1429 6.28224 15.1027 6.38293C15.0625 6.48362 14.9955 6.57555 14.9196 6.65436C14.8438 6.73316 14.7455 6.79445 14.6429 6.83823C14.5402 6.882 14.4286 6.90389 14.317 6.90389C14.1473 6.90389 13.9821 6.85574 13.8438 6.7638H13.8393ZM20.5 2.80183C20.5 1.25645 19.2188 0 17.6429 0H3.35714C1.78125 0 0.5 1.25645 0.5 2.80183V16.811C0.5 18.3564 1.78125 19.6128 3.35714 19.6128H17.6429C19.2188 19.6128 20.5 18.3564 20.5 16.811V2.80183ZM16.4375 15.629C15.6027 16.4476 14.5893 16.7059 13.4464 16.7628C12.2679 16.8285 8.73214 16.8285 7.55357 16.7628C6.41071 16.7059 5.39732 16.4476 4.5625 15.629C3.72768 14.8103 3.46429 13.8165 3.41071 12.6958C3.34375 11.5401 3.34375 8.07278 3.41071 6.91703C3.46875 5.79629 3.72768 4.80252 4.5625 3.98386C5.39732 3.1652 6.41518 2.9069 7.55357 2.85437C8.73214 2.7887 12.2679 2.7887 13.4464 2.85437C14.5893 2.91128 15.6027 3.1652 16.4375 3.98386C17.2723 4.80252 17.5357 5.79629 17.5893 6.91703C17.6562 8.06841 17.6562 11.5313 17.5893 12.6914C17.5312 13.8122 17.2723 14.8059 16.4375 15.6246V15.629Z" fill="white"/>
</svg>
