<svg width="18" height="20" viewBox="0 0 18 20" fill="none" xmlns="http://www.w3.org/2000/svg">
<path d="M18.0017 8.04129C16.2812 8.0449 14.6031 7.51823 13.2044 6.5357V13.3855C13.204 14.6542 12.8086 15.8924 12.0711 16.9347C11.3336 17.977 10.2892 18.7737 9.07751 19.2181C7.86583 19.6625 6.54465 19.7335 5.29068 19.4217C4.03671 19.1098 2.90973 18.43 2.06046 17.473C1.2112 16.516 0.680132 15.3275 0.538299 14.0666C0.396465 12.8056 0.650622 11.5322 1.26678 10.4167C1.88294 9.30123 2.83172 8.39682 3.98623 7.82445C5.14074 7.25207 6.44594 7.03902 7.72728 7.21379V10.6579C7.14139 10.477 6.5122 10.4823 5.92956 10.673C5.34692 10.8637 4.84061 11.23 4.48293 11.7197C4.12525 12.2094 3.93449 12.7974 3.93789 13.3997C3.94128 14.0021 4.13866 14.5879 4.50184 15.0737C4.86501 15.5595 5.37542 15.9203 5.96018 16.1047C6.54493 16.2891 7.17414 16.2875 7.75796 16.1003C8.34177 15.9131 8.85035 15.5498 9.21106 15.0623C9.57178 14.5747 9.76619 13.9879 9.76654 13.3855V0H13.2044C13.2024 0.285128 13.2273 0.569826 13.2786 0.850484C13.3982 1.47609 13.6466 2.07121 14.0086 2.59949C14.3706 3.12777 14.8387 3.57809 15.3843 3.92295C16.1608 4.4259 17.0711 4.6937 18.0017 4.69299V8.04129Z" fill="white"/>
</svg>
