<svg width="21" height="20" viewBox="0 0 21 20" fill="none" xmlns="http://www.w3.org/2000/svg">
<path d="M3.35714 0C1.78125 0 0.5 1.25645 0.5 2.80183V16.811C0.5 18.3564 1.78125 19.6128 3.35714 19.6128H17.6429C19.2188 19.6128 20.5 18.3564 20.5 16.811V2.80183C20.5 1.25645 19.2188 0 17.6429 0H3.35714ZM16.6205 3.67741L11.9866 8.86956L17.4375 15.9354H13.1696L9.83036 11.6495L6.00446 15.9354H3.88393L8.83929 10.3799L3.61161 3.67741H7.98661L11.0089 7.5956L14.5 3.67741H16.6205ZM14.933 14.6921L7.34821 4.85505H6.08482L13.7545 14.6921H14.9286H14.933Z" fill="white"/>
</svg>
