<svg width="29" height="20" viewBox="0 0 29 20" fill="none" xmlns="http://www.w3.org/2000/svg">
<path d="M28.3542 3.06961C28.026 1.85913 27.0625 0.909137 25.8385 0.587364C23.6198 0 14.724 0 14.724 0C14.724 0 5.82812 0 3.60937 0.587364C2.38542 0.909137 1.42187 1.85913 1.09375 3.06961C0.5 5.26074 0.5 9.82685 0.5 9.82685C0.5 9.82685 0.5 14.393 1.09375 16.5841C1.42187 17.7946 2.38542 18.7037 3.60937 19.0255C5.82812 19.6128 14.724 19.6128 14.724 19.6128C14.724 19.6128 23.6198 19.6128 25.8385 19.0255C27.0625 18.7037 28.026 17.7895 28.3542 16.5841C28.9479 14.393 28.9479 9.82685 28.9479 9.82685C28.9479 9.82685 28.9479 5.26074 28.3542 3.06961ZM11.8177 13.9741V5.67955L19.25 9.82685L11.8177 13.9741Z" fill="white"/>
</svg>
