<svg width="19" height="24" viewBox="0 0 19 24" fill="none" xmlns="http://www.w3.org/2000/svg">
<path d="M0 11.9977L1.33792 1.31224C1.43181 0.56239 2.07025 0 2.83075 0H10.7456C11.4497 0 12.0178 0.567077 12.0178 1.27006C12.0178 1.42004 11.9896 1.57469 11.938 1.71529L9.76444 7.49854H16.3038C17.2521 7.49854 18.0267 8.26714 18.0267 9.21851C18.0267 9.56532 17.9234 9.90275 17.7262 10.1886L8.7035 23.3579C8.42653 23.761 7.97117 24 7.48764 24H7.3515C6.61447 24 6.01358 23.4001 6.01358 22.6643C6.01358 22.5565 6.02767 22.4487 6.05583 22.341L8.26222 13.4974H1.50222C0.671305 13.4974 0 12.8272 0 11.9977Z" fill="white"/>
</svg>
