<svg width="21" height="15" viewBox="0 0 21 15" fill="none" xmlns="http://www.w3.org/2000/svg">
<path d="M2.375 0.283691C1.33984 0.283691 0.5 1.10728 0.5 2.12239C0.5 2.70082 0.777344 3.24477 1.25 3.59336L9.75 9.84495C10.1953 10.1706 10.8047 10.1706 11.25 9.84495L19.75 3.59336C20.2227 3.24477 20.5 2.70082 20.5 2.12239C20.5 1.10728 19.6602 0.283691 18.625 0.283691H2.375ZM0.5 4.574V12.5417C0.5 13.8939 1.62109 14.9933 3 14.9933H18C19.3789 14.9933 20.5 13.8939 20.5 12.5417V4.574L12 10.8256C11.1094 11.4806 9.89062 11.4806 9 10.8256L0.5 4.574Z" fill="white"/>
</svg>
