<svg width="555" height="270" viewBox="0 0 555 270" fill="none" xmlns="http://www.w3.org/2000/svg">
<path d="M450.918 -27.9066C494.338 -20.2687 533.751 11.74 547.857 52.1521C561.964 92.5642 551.517 141.546 530.152 181.125C508.41 220.621 476.211 250.427 444.814 278.468C413.501 306.138 382.613 331.96 341.759 368.404C300.442 405.135 248.32 452.692 215.235 438.01C182.233 422.957 168.268 345.665 128.261 300.704C88.6308 255.825 23.1664 244.1 5.34542 212.971C-12.4756 181.841 17.6392 131.759 52.3649 97.848C87.0906 63.9367 126.342 46.5657 153.214 17.5265C180.378 -11.0595 194.784 -51.3969 218.95 -56.5552C243.494 -61.6302 277.334 -31.2396 318.576 -24.4709C359.525 -18.1551 407.414 -35.1746 450.918 -27.9066Z" fill="#2E70FF"/>
</svg>
