<svg width="21" height="24" viewBox="0 0 21 24" fill="none" xmlns="http://www.w3.org/2000/svg">
<path d="M6.75 6.61933V8.82578H14.25V6.61933C14.25 4.58756 12.5719 2.94193 10.5 2.94193C8.42813 2.94193 6.75 4.58756 6.75 6.61933ZM3.75 8.82578V6.61933C3.75 2.96491 6.77344 0 10.5 0C14.2266 0 17.25 2.96491 17.25 6.61933V8.82578H18C19.6547 8.82578 21 10.145 21 11.7677V20.5935C21 22.2161 19.6547 23.5354 18 23.5354H3C1.34531 23.5354 0 22.2161 0 20.5935V11.7677C0 10.145 1.34531 8.82578 3 8.82578H3.75Z" fill="white"/>
</svg>
