<svg width="17" height="17" viewBox="0 0 17 17" fill="none" xmlns="http://www.w3.org/2000/svg">
<path d="M5.6529 1.71571C5.41228 1.14573 4.77794 0.842362 4.17171 1.00477L1.42183 1.74022C0.878108 1.88731 0.5 2.37148 0.5 2.92307C0.5 10.5043 6.76847 16.6515 14.4994 16.6515C15.0619 16.6515 15.5556 16.2807 15.7056 15.7475L16.4555 13.0508C16.6212 12.4563 16.3118 11.8343 15.7306 11.5983L12.7307 10.3726C12.2214 10.1642 11.6308 10.3082 11.2839 10.728L10.0215 12.2388C7.82155 11.2183 6.04038 9.47163 4.9998 7.31431L6.54036 6.07937C6.96846 5.73616 7.11533 5.16006 6.90284 4.66057L5.6529 1.71877V1.71571Z" fill="white"/>
</svg>
